<?xml version="1.0" encoding="iso-8859-1"?>
<!-- Uploaded to: SVG Repo, www.svgrepo.com, Generator: SVG Repo Mixer Tools -->
<svg height="800px" width="800px" version="1.1" id="Capa_1" xmlns="http://www.w3.org/2000/svg" xmlns:xlink="http://www.w3.org/1999/xlink" 
	 viewBox="0 0 428 428" xml:space="preserve">
<g>
	<path d="M413.223,180.38c2.28,2.1,3.04,5.37,1.92,8.25c-1.13,2.88-3.9,4.78-6.99,4.78h-45.01V420.5c0,4.14-3.36,7.5-7.5,7.5H72.353
		c-4.14,0-7.5-3.36-7.5-7.5V193.41h-45c-3.1,0-5.87-1.9-6.99-4.78c-1.13-2.88-0.37-6.15,1.91-8.25l194.15-178.4
		c2.87-2.64,7.28-2.64,10.15,0L413.223,180.38z M355.643,178.41h33.26l-107.67-98.94v19.24c0,1.99-0.79,3.9-2.2,5.3l-23.81,23.82
		c1.11,2.58,1.73,5.42,1.73,8.4c0,11.74-9.55,21.29-21.29,21.29c-11.75,0-21.3-9.55-21.3-21.29s9.55-21.29,21.3-21.29
		c3.27,0,6.37,0.76,9.14,2.09l21.43-21.43V65.68l-44.74-41.1v30.43c8.05,3.04,13.8,10.81,13.8,19.91c0,11.74-9.55,21.29-21.29,21.29
		s-21.3-9.55-21.3-21.29c0-9.1,5.75-16.86,13.79-19.91V24.58L177.743,51v65.32c8.05,3.05,13.79,10.81,13.79,19.91
		c0,11.74-9.55,21.29-21.29,21.29c-11.74,0-21.29-9.55-21.29-21.29c0-9.1,5.74-16.86,13.79-19.91V64.79L39.093,178.41h33.26
		c4.14,0,7.5,3.35,7.5,7.5V413h18.65V185.91c0-4.14,3.35-7.5,7.5-7.5h216c4.14,0,7.5,3.36,7.5,7.5V413h18.64V185.91
		C348.143,181.76,351.503,178.41,355.643,178.41z M314.503,413v-31.92h-201V413H314.503z M314.503,366.08v-31.92h-201v31.92H314.503
		z M314.503,319.16v-31.92h-201v31.92H314.503z M314.503,272.24v-31.91h-201v31.91H314.503z M314.503,225.33v-31.92h-201v31.92
		H314.503z M241.953,136.23c0-3.47-2.83-6.29-6.29-6.29c-3.47,0-6.3,2.82-6.3,6.29s2.83,6.29,6.3,6.29
		C239.123,142.52,241.953,139.7,241.953,136.23z M220.293,74.92c0-3.47-2.82-6.3-6.29-6.3s-6.3,2.83-6.3,6.3s2.83,6.29,6.3,6.29
		S220.293,78.39,220.293,74.92z M176.533,136.23c0-3.47-2.82-6.29-6.29-6.29c-3.47,0-6.29,2.82-6.29,6.29s2.82,6.29,6.29,6.29
		C173.713,142.52,176.533,139.7,176.533,136.23z"/>
	<path style="fill:#3DD0F2;" d="M388.903,178.41h-33.26c-4.14,0-7.5,3.35-7.5,7.5V413h-18.64V185.91c0-4.14-3.36-7.5-7.5-7.5h-216
		c-4.15,0-7.5,3.36-7.5,7.5V413h-18.65V185.91c0-4.15-3.36-7.5-7.5-7.5h-33.26l123.65-113.62v51.53
		c-8.05,3.05-13.79,10.81-13.79,19.91c0,11.74,9.55,21.29,21.29,21.29c11.74,0,21.29-9.55,21.29-21.29c0-9.1-5.74-16.86-13.79-19.91
		V51l28.75-26.42v30.43c-8.04,3.05-13.79,10.81-13.79,19.91c0,11.74,9.56,21.29,21.3,21.29s21.29-9.55,21.29-21.29
		c0-9.1-5.75-16.87-13.8-19.91V24.58l44.74,41.1V95.6l-21.43,21.43c-2.77-1.33-5.87-2.09-9.14-2.09c-11.75,0-21.3,9.55-21.3,21.29
		s9.55,21.29,21.3,21.29c11.74,0,21.29-9.55,21.29-21.29c0-2.98-0.62-5.82-1.73-8.4l23.81-23.82c1.41-1.4,2.2-3.31,2.2-5.3V79.47
		L388.903,178.41z"/>
	<path style="fill:#F48C6C;" d="M235.663,129.94c3.46,0,6.29,2.82,6.29,6.29s-2.83,6.29-6.29,6.29c-3.47,0-6.3-2.82-6.3-6.29
		S232.193,129.94,235.663,129.94z"/>
	<path style="fill:#F48C6C;" d="M214.003,68.62c3.47,0,6.29,2.83,6.29,6.3s-2.82,6.29-6.29,6.29s-6.3-2.82-6.3-6.29
		S210.533,68.62,214.003,68.62z"/>
	<path style="fill:#F48C6C;" d="M170.243,129.94c3.47,0,6.29,2.82,6.29,6.29s-2.82,6.29-6.29,6.29c-3.47,0-6.29-2.82-6.29-6.29
		S166.773,129.94,170.243,129.94z"/>
</g>
</svg>